# Blender 5.2.0 LTS
# www.blender.org
mtllib Orientation.mtl
o XPlus
v 21.000000 3.000000 1.000000
v 21.000000 3.000000 -1.000000
v 21.000000 -3.000000 1.000000
v 21.000000 -3.000000 -1.000000
v 19.000000 3.000000 1.000000
v 19.000000 3.000000 -1.000000
v 19.000000 -3.000000 1.000000
v 19.000000 -3.000000 -1.000000
v 21.000000 1.000000 -3.000000
v 21.000000 -1.000000 -3.000000
v 21.000000 1.000000 3.000000
v 21.000000 -1.000000 3.000000
v 19.000000 1.000000 -3.000000
v 19.000000 -1.000000 -3.000000
v 19.000000 1.000000 3.000000
v 19.000000 -1.000000 3.000000
vn -0.0000 -0.0000 1.0000
vn -0.0000 -1.0000 -0.0000
vn -1.0000 -0.0000 -0.0000
vn -0.0000 -0.0000 -1.0000
vn 1.0000 -0.0000 -0.0000
vn -0.0000 1.0000 -0.0000
vt 0.625000 0.500000
vt 0.875000 0.500000
vt 0.875000 0.750000
vt 0.625000 0.750000
vt 0.375000 0.750000
vt 0.625000 1.000000
vt 0.375000 1.000000
vt 0.375000 0.000000
vt 0.625000 0.000000
vt 0.625000 0.250000
vt 0.375000 0.250000
vt 0.125000 0.500000
vt 0.375000 0.500000
vt 0.125000 0.750000
s 0
usemtl Red
f 1/1/1 5/2/1 7/3/1 3/4/1
f 4/5/2 3/4/2 7/6/2 8/7/2
f 8/8/3 7/9/3 5/10/3 6/11/3
f 6/12/4 2/13/4 4/5/4 8/14/4
f 2/13/5 1/1/5 3/4/5 4/5/5
f 6/11/6 5/10/6 1/1/6 2/13/6
f 9/1/6 13/2/6 15/3/6 11/4/6
f 12/5/1 11/4/1 15/6/1 16/7/1
f 16/8/3 15/9/3 13/10/3 14/11/3
f 14/12/2 10/13/2 12/5/2 16/14/2
f 10/13/5 9/1/5 11/4/5 12/5/5
f 14/11/4 13/10/4 9/1/4 10/13/4
o YMinus
v -3.000000 1.000000 19.000000
v -3.000000 -1.000000 19.000000
v 3.000000 1.000000 19.000000
v 3.000000 -1.000000 19.000000
v -3.000000 1.000000 21.000000
v -3.000000 -1.000000 21.000000
v 3.000000 1.000000 21.000000
v 3.000000 -1.000000 21.000000
vn -0.0000 1.0000 -0.0000
vn 1.0000 -0.0000 -0.0000
vn -0.0000 -0.0000 1.0000
vn -0.0000 -1.0000 -0.0000
vn -0.0000 -0.0000 -1.0000
vn -1.0000 -0.0000 -0.0000
vt 0.625000 0.500000
vt 0.875000 0.500000
vt 0.875000 0.750000
vt 0.625000 0.750000
vt 0.375000 0.750000
vt 0.625000 1.000000
vt 0.375000 1.000000
vt 0.375000 0.000000
vt 0.625000 0.000000
vt 0.625000 0.250000
vt 0.375000 0.250000
vt 0.125000 0.500000
vt 0.375000 0.500000
vt 0.125000 0.750000
s 0
usemtl Green
f 17/15/7 21/16/7 23/17/7 19/18/7
f 20/19/8 19/18/8 23/20/8 24/21/8
f 24/22/9 23/23/9 21/24/9 22/25/9
f 22/26/10 18/27/10 20/19/10 24/28/10
f 18/27/11 17/15/11 19/18/11 20/19/11
f 22/25/12 21/24/12 17/15/12 18/27/12
o YPlus
v -1.000000 3.000000 -19.000000
v 1.000000 3.000000 -19.000000
v -1.000000 -3.000000 -19.000000
v 1.000000 -3.000000 -19.000000
v -1.000000 3.000000 -21.000000
v 1.000000 3.000000 -21.000000
v -1.000000 -3.000000 -21.000000
v 1.000000 -3.000000 -21.000000
v 3.000000 1.000000 -19.000000
v 3.000000 -1.000000 -19.000000
v -3.000000 1.000000 -19.000000
v -3.000000 -1.000000 -19.000000
v 3.000000 1.000000 -21.000000
v 3.000000 -1.000000 -21.000000
v -3.000000 1.000000 -21.000000
v -3.000000 -1.000000 -21.000000
vn -1.0000 -0.0000 -0.0000
vn -0.0000 -1.0000 -0.0000
vn -0.0000 -0.0000 -1.0000
vn 1.0000 -0.0000 -0.0000
vn -0.0000 -0.0000 1.0000
vn -0.0000 1.0000 -0.0000
vt 0.625000 0.500000
vt 0.875000 0.500000
vt 0.875000 0.750000
vt 0.625000 0.750000
vt 0.375000 0.750000
vt 0.625000 1.000000
vt 0.375000 1.000000
vt 0.375000 0.000000
vt 0.625000 0.000000
vt 0.625000 0.250000
vt 0.375000 0.250000
vt 0.125000 0.500000
vt 0.375000 0.500000
vt 0.125000 0.750000
s 0
usemtl Green
f 25/29/13 29/30/13 31/31/13 27/32/13
f 28/33/14 27/32/14 31/34/14 32/35/14
f 32/36/15 31/37/15 29/38/15 30/39/15
f 30/40/16 26/41/16 28/33/16 32/42/16
f 26/41/17 25/29/17 27/32/17 28/33/17
f 30/39/18 29/38/18 25/29/18 26/41/18
f 33/29/18 37/30/18 39/31/18 35/32/18
f 36/33/13 35/32/13 39/34/13 40/35/13
f 40/36/15 39/37/15 37/38/15 38/39/15
f 38/40/14 34/41/14 36/33/14 40/42/14
f 34/41/17 33/29/17 35/32/17 36/33/17
f 38/39/16 37/38/16 33/29/16 34/41/16
o ZMinus
v -3.000000 -19.000000 -1.000000
v -3.000000 -21.000000 -1.000000
v 3.000000 -19.000000 -1.000000
v 3.000000 -21.000000 -1.000000
v -3.000000 -19.000000 1.000000
v -3.000000 -21.000000 1.000000
v 3.000000 -19.000000 1.000000
v 3.000000 -21.000000 1.000000
vn -0.0000 1.0000 -0.0000
vn 1.0000 -0.0000 -0.0000
vn -0.0000 -0.0000 1.0000
vn -0.0000 -1.0000 -0.0000
vn -0.0000 -0.0000 -1.0000
vn -1.0000 -0.0000 -0.0000
vt 0.625000 0.500000
vt 0.875000 0.500000
vt 0.875000 0.750000
vt 0.625000 0.750000
vt 0.375000 0.750000
vt 0.625000 1.000000
vt 0.375000 1.000000
vt 0.375000 0.000000
vt 0.625000 0.000000
vt 0.625000 0.250000
vt 0.375000 0.250000
vt 0.125000 0.500000
vt 0.375000 0.500000
vt 0.125000 0.750000
s 0
usemtl Blue
f 41/43/19 45/44/19 47/45/19 43/46/19
f 44/47/20 43/46/20 47/48/20 48/49/20
f 48/50/21 47/51/21 45/52/21 46/53/21
f 46/54/22 42/55/22 44/47/22 48/56/22
f 42/55/23 41/43/23 43/46/23 44/47/23
f 46/53/24 45/52/24 41/43/24 42/55/24
o ZPlus
v 3.000000 19.000000 1.000000
v 3.000000 19.000000 -1.000000
v -3.000000 19.000000 1.000000
v -3.000000 19.000000 -1.000000
v 3.000000 21.000000 1.000000
v 3.000000 21.000000 -1.000000
v -3.000000 21.000000 1.000000
v -3.000000 21.000000 -1.000000
v 1.000000 19.000000 -3.000000
v -1.000000 19.000000 -3.000000
v 1.000000 19.000000 3.000000
v -1.000000 19.000000 3.000000
v 1.000000 21.000000 -3.000000
v -1.000000 21.000000 -3.000000
v 1.000000 21.000000 3.000000
v -1.000000 21.000000 3.000000
vn -0.0000 -0.0000 1.0000
vn -1.0000 -0.0000 -0.0000
vn -0.0000 1.0000 -0.0000
vn -0.0000 -0.0000 -1.0000
vn -0.0000 -1.0000 -0.0000
vn 1.0000 -0.0000 -0.0000
vt 0.625000 0.500000
vt 0.875000 0.500000
vt 0.875000 0.750000
vt 0.625000 0.750000
vt 0.375000 0.750000
vt 0.625000 1.000000
vt 0.375000 1.000000
vt 0.375000 0.000000
vt 0.625000 0.000000
vt 0.625000 0.250000
vt 0.375000 0.250000
vt 0.125000 0.500000
vt 0.375000 0.500000
vt 0.125000 0.750000
s 0
usemtl Blue
f 49/57/25 53/58/25 55/59/25 51/60/25
f 52/61/26 51/60/26 55/62/26 56/63/26
f 56/64/27 55/65/27 53/66/27 54/67/27
f 54/68/28 50/69/28 52/61/28 56/70/28
f 50/69/29 49/57/29 51/60/29 52/61/29
f 54/67/30 53/66/30 49/57/30 50/69/30
f 57/57/30 61/58/30 63/59/30 59/60/30
f 60/61/25 59/60/25 63/62/25 64/63/25
f 64/64/27 63/65/27 61/66/27 62/67/27
f 62/68/26 58/69/26 60/61/26 64/70/26
f 58/69/29 57/57/29 59/60/29 60/61/29
f 62/67/28 61/66/28 57/57/28 58/69/28
o XMinus
v -21.000000 1.000000 2.999999
v -21.000000 -1.000000 2.999999
v -21.000000 1.000000 -3.000001
v -21.000000 -1.000000 -3.000001
v -19.000000 1.000000 2.999999
v -19.000000 -1.000000 2.999999
v -19.000000 1.000000 -3.000001
v -19.000000 -1.000000 -3.000001
vn -0.0000 1.0000 -0.0000
vn -0.0000 -0.0000 -1.0000
vn 1.0000 -0.0000 -0.0000
vn -0.0000 -1.0000 -0.0000
vn -1.0000 -0.0000 -0.0000
vn -0.0000 -0.0000 1.0000
vt 0.625000 0.500000
vt 0.875000 0.500000
vt 0.875000 0.750000
vt 0.625000 0.750000
vt 0.375000 0.750000
vt 0.625000 1.000000
vt 0.375000 1.000000
vt 0.375000 0.000000
vt 0.625000 0.000000
vt 0.625000 0.250000
vt 0.375000 0.250000
vt 0.125000 0.500000
vt 0.375000 0.500000
vt 0.125000 0.750000
s 0
usemtl Red
f 65/71/31 69/72/31 71/73/31 67/74/31
f 68/75/32 67/74/32 71/76/32 72/77/32
f 72/78/33 71/79/33 69/80/33 70/81/33
f 70/82/34 66/83/34 68/75/34 72/84/34
f 66/83/35 65/71/35 67/74/35 68/75/35
f 70/81/36 69/80/36 65/71/36 66/83/36
