<?xml version="1.0" encoding="utf-8"?>
<COLLADA xmlns="http://www.collada.org/2005/11/COLLADASchema" version="1.4.1" xmlns:xsi="http://www.w3.org/2001/XMLSchema-instance">
  <asset>
    <contributor>
      <author>Blender User</author>
      <authoring_tool>Blender 4.4.0 commit date:2025-03-17, commit time:17:00, hash:05377985c527</authoring_tool>
    </contributor>
    <created>2026-08-23T18:31:09</created>
    <modified>2026-08-23T18:31:09</modified>
    <unit name="meter" meter="1"/>
    <up_axis>Z_UP</up_axis>
  </asset>
  <library_cameras>
    <camera id="Camera-camera" name="Camera">
      <optics>
        <technique_common>
          <perspective>
            <xfov sid="xfov">39.59775</xfov>
            <aspect_ratio>1.777778</aspect_ratio>
            <znear sid="znear">0.1</znear>
            <zfar sid="zfar">100</zfar>
          </perspective>
        </technique_common>
      </optics>
      <extra>
        <technique profile="blender">
          <shiftx sid="shiftx" type="float">0</shiftx>
          <shifty sid="shifty" type="float">0</shifty>
          <dof_distance sid="dof_distance" type="float">10</dof_distance>
        </technique>
      </extra>
    </camera>
  </library_cameras>
  <library_lights>
    <light id="Light-light" name="Light">
      <technique_common>
        <point>
          <color sid="color">1000 1000 1000</color>
          <constant_attenuation>1</constant_attenuation>
          <linear_attenuation>0</linear_attenuation>
          <quadratic_attenuation>0</quadratic_attenuation>
        </point>
      </technique_common>
      <extra>
        <technique profile="blender">
          <type sid="type" type="int">0</type>
          <flag sid="flag" type="int">0</flag>
          <mode sid="mode" type="int">2097153</mode>
          <red sid="red" type="float">1</red>
          <green sid="green" type="float">1</green>
          <blue sid="blue" type="float">1</blue>
          <energy sid="blender_energy" type="float">1000</energy>
          <spotsize sid="spotsize" type="float">75</spotsize>
          <spotblend sid="spotblend" type="float">0.15</spotblend>
          <clipsta sid="clipsta" type="float">0.04999995</clipsta>
          <clipend sid="clipend" type="float">40</clipend>
          <radius sid="radius" type="float">0.1</radius>
          <area_shape sid="area_shape" type="int">1</area_shape>
          <area_size sid="area_size" type="float">0.1</area_size>
          <area_sizey sid="area_sizey" type="float">0.1</area_sizey>
          <area_sizez sid="area_sizez" type="float">1</area_sizez>
        </technique>
      </extra>
    </light>
  </library_lights>
  <library_effects>
    <effect id="Blue-effect">
      <profile_COMMON>
        <technique sid="common">
          <lambert>
            <emission>
              <color sid="emission">0 0 0 1</color>
            </emission>
            <diffuse>
              <color sid="diffuse">0 0.5417597 0.8000157 1</color>
            </diffuse>
            <index_of_refraction>
              <float sid="ior">1.5</float>
            </index_of_refraction>
          </lambert>
        </technique>
      </profile_COMMON>
    </effect>
    <effect id="Green-effect">
      <profile_COMMON>
        <technique sid="common">
          <lambert>
            <emission>
              <color sid="emission">0 0 0 1</color>
            </emission>
            <diffuse>
              <color sid="diffuse">0.007813499 0.8000075 5.77069e-4 1</color>
            </diffuse>
            <index_of_refraction>
              <float sid="ior">1.5</float>
            </index_of_refraction>
          </lambert>
        </technique>
      </profile_COMMON>
    </effect>
    <effect id="Red-effect">
      <profile_COMMON>
        <technique sid="common">
          <lambert>
            <emission>
              <color sid="emission">0 0 0 1</color>
            </emission>
            <diffuse>
              <color sid="diffuse">0.8000157 0.00497184 0.004222554 1</color>
            </diffuse>
            <index_of_refraction>
              <float sid="ior">1.5</float>
            </index_of_refraction>
          </lambert>
        </technique>
      </profile_COMMON>
    </effect>
  </library_effects>
  <library_images/>
  <library_materials>
    <material id="Blue-material" name="Blue">
      <instance_effect url="#Blue-effect"/>
    </material>
    <material id="Green-material" name="Green">
      <instance_effect url="#Green-effect"/>
    </material>
    <material id="Red-material" name="Red">
      <instance_effect url="#Red-effect"/>
    </material>
  </library_materials>
  <library_geometries>
    <geometry id="ZPlusMesh-mesh" name="ZPlusMesh">
      <mesh>
        <source id="ZPlusMesh-mesh-positions">
          <float_array id="ZPlusMesh-mesh-positions-array" count="144">3 -1 19 3 -1 19 3 -1 19 3 0.9999999 19 3 0.9999999 19 3 0.9999999 19 -3 -0.9999999 19 -3 -0.9999999 19 -3 -0.9999999 19 -3 1 19 -3 1 19 -3 1 19 3 -1 21 3 -1 21 3 -1 21 3 0.9999999 21 3 0.9999999 21 3 0.9999999 21 -3 -0.9999999 21 -3 -0.9999999 21 -3 -0.9999999 21 -3 1 21 -3 1 21 -3 1 21 1 3 19 1 3 19 1 3 19 -1 3 19 -1 3 19 -1 3 19 1 -3 19 1 -3 19 1 -3 19 -1 -3 19 -1 -3 19 -1 -3 19 1 3 21 1 3 21 1 3 21 -1 3 21 -1 3 21 -1 3 21 1 -3 21 1 -3 21 1 -3 21 -1 -3 21 -1 -3 21 -1 -3 21</float_array>
          <technique_common>
            <accessor source="#ZPlusMesh-mesh-positions-array" count="48" stride="3">
              <param name="X" type="float"/>
              <param name="Y" type="float"/>
              <param name="Z" type="float"/>
            </accessor>
          </technique_common>
        </source>
        <source id="ZPlusMesh-mesh-normals">
          <float_array id="ZPlusMesh-mesh-normals-array" count="42">0 -1 0 -1 0 0 1.98682e-7 0 1 0 0 1 0 1 0 -1.19209e-7 0 -1 0 0 -1 1 0 0 1 0 0 0 -1 0 0 -1 -2.38419e-7 -1 0 0 0 1 1.78814e-7 0 1 0</float_array>
          <technique_common>
            <accessor source="#ZPlusMesh-mesh-normals-array" count="14" stride="3">
              <param name="X" type="float"/>
              <param name="Y" type="float"/>
              <param name="Z" type="float"/>
            </accessor>
          </technique_common>
        </source>
        <source id="ZPlusMesh-mesh-map-0">
          <float_array id="ZPlusMesh-mesh-map-0-array" count="144">0.625 0.5 0.875 0.5 0.875 0.75 0.625 0.5 0.875 0.75 0.625 0.75 0.375 0.75 0.625 0.75 0.625 1 0.375 0.75 0.625 1 0.375 1 0.375 0 0.625 0 0.625 0.25 0.375 0 0.625 0.25 0.375 0.25 0.125 0.5 0.375 0.5 0.375 0.75 0.125 0.5 0.375 0.75 0.125 0.75 0.375 0.5 0.625 0.5 0.625 0.75 0.375 0.5 0.625 0.75 0.375 0.75 0.375 0.25 0.625 0.25 0.625 0.5 0.375 0.25 0.625 0.5 0.375 0.5 0.625 0.5 0.875 0.5 0.875 0.75 0.625 0.5 0.875 0.75 0.625 0.75 0.375 0.75 0.625 0.75 0.625 1 0.375 0.75 0.625 1 0.375 1 0.375 0 0.625 0 0.625 0.25 0.375 0 0.625 0.25 0.375 0.25 0.125 0.5 0.375 0.5 0.375 0.75 0.125 0.5 0.375 0.75 0.125 0.75 0.375 0.5 0.625 0.5 0.625 0.75 0.375 0.5 0.625 0.75 0.375 0.75 0.375 0.25 0.625 0.25 0.625 0.5 0.375 0.25 0.625 0.5 0.375 0.5</float_array>
          <technique_common>
            <accessor source="#ZPlusMesh-mesh-map-0-array" count="72" stride="2">
              <param name="S" type="float"/>
              <param name="T" type="float"/>
            </accessor>
          </technique_common>
        </source>
        <vertices id="ZPlusMesh-mesh-vertices">
          <input semantic="POSITION" source="#ZPlusMesh-mesh-positions"/>
        </vertices>
        <triangles material="Blue-material" count="24">
          <input semantic="VERTEX" source="#ZPlusMesh-mesh-vertices" offset="0"/>
          <input semantic="NORMAL" source="#ZPlusMesh-mesh-normals" offset="1"/>
          <input semantic="TEXCOORD" source="#ZPlusMesh-mesh-map-0" offset="2" set="0"/>
          <p>0 0 0 12 0 1 18 0 2 0 0 3 18 0 4 6 0 5 11 1 6 8 1 7 20 1 8 11 1 9 20 1 10 23 1 11 22 2 12 19 2 13 13 2 14 22 3 15 13 3 16 16 3 17 15 4 18 3 4 19 9 4 20 15 4 21 9 4 22 21 4 23 4 5 24 1 5 25 7 5 26 4 6 27 7 6 28 10 6 29 17 7 30 14 7 31 2 7 32 17 7 33 2 7 34 5 7 35 26 8 36 38 8 37 44 8 38 26 7 39 44 7 40 32 7 41 33 9 42 30 9 43 42 9 44 33 10 45 42 10 46 45 10 47 46 3 48 43 3 49 37 3 50 46 3 51 37 3 52 40 3 53 41 1 54 29 1 55 35 1 56 41 11 57 35 11 58 47 11 59 28 6 60 25 6 61 31 6 62 28 6 63 31 6 64 34 6 65 39 12 66 36 12 67 24 12 68 39 13 69 24 13 70 27 13 71</p>
        </triangles>
      </mesh>
    </geometry>
    <geometry id="ZMinusMesh-mesh" name="ZMinusMesh">
      <mesh>
        <source id="ZMinusMesh-mesh-positions">
          <float_array id="ZMinusMesh-mesh-positions-array" count="72">-3 0.9999999 -19 -3 0.9999999 -19 -3 0.9999999 -19 -3 0.9999999 -21 -3 0.9999999 -21 -3 0.9999999 -21 3 1 -19 3 1 -19 3 1 -19 3 1 -21 3 1 -21 3 1 -21 -3 -1 -19 -3 -1 -19 -3 -1 -19 -3 -1 -21 -3 -1 -21 -3 -1 -21 3 -0.9999999 -19 3 -0.9999999 -19 3 -0.9999999 -19 3 -0.9999999 -21 3 -0.9999999 -21 3 -0.9999999 -21</float_array>
          <technique_common>
            <accessor source="#ZMinusMesh-mesh-positions-array" count="24" stride="3">
              <param name="X" type="float"/>
              <param name="Y" type="float"/>
              <param name="Z" type="float"/>
            </accessor>
          </technique_common>
        </source>
        <source id="ZMinusMesh-mesh-normals">
          <float_array id="ZMinusMesh-mesh-normals-array" count="24">1.19209e-7 0 1 0 0 1 1 0 0 0 -1 0 1.98682e-7 0 -1 0 0 -1 0 1 0 -1 0 0</float_array>
          <technique_common>
            <accessor source="#ZMinusMesh-mesh-normals-array" count="8" stride="3">
              <param name="X" type="float"/>
              <param name="Y" type="float"/>
              <param name="Z" type="float"/>
            </accessor>
          </technique_common>
        </source>
        <source id="ZMinusMesh-mesh-map-0">
          <float_array id="ZMinusMesh-mesh-map-0-array" count="72">0.625 0.5 0.875 0.5 0.875 0.75 0.625 0.5 0.875 0.75 0.625 0.75 0.375 0.75 0.625 0.75 0.625 1 0.375 0.75 0.625 1 0.375 1 0.375 0 0.625 0 0.625 0.25 0.375 0 0.625 0.25 0.375 0.25 0.125 0.5 0.375 0.5 0.375 0.75 0.125 0.5 0.375 0.75 0.125 0.75 0.375 0.5 0.625 0.5 0.625 0.75 0.375 0.5 0.625 0.75 0.375 0.75 0.375 0.25 0.625 0.25 0.625 0.5 0.375 0.25 0.625 0.5 0.375 0.5</float_array>
          <technique_common>
            <accessor source="#ZMinusMesh-mesh-map-0-array" count="36" stride="2">
              <param name="S" type="float"/>
              <param name="T" type="float"/>
            </accessor>
          </technique_common>
        </source>
        <vertices id="ZMinusMesh-mesh-vertices">
          <input semantic="POSITION" source="#ZMinusMesh-mesh-positions"/>
        </vertices>
        <triangles material="Blue-material" count="12">
          <input semantic="VERTEX" source="#ZMinusMesh-mesh-vertices" offset="0"/>
          <input semantic="NORMAL" source="#ZMinusMesh-mesh-normals" offset="1"/>
          <input semantic="TEXCOORD" source="#ZMinusMesh-mesh-map-0" offset="2" set="0"/>
          <p>1 0 0 13 0 1 19 0 2 1 1 3 19 1 4 7 1 5 11 2 6 8 2 7 20 2 8 11 2 9 20 2 10 23 2 11 21 3 12 18 3 13 12 3 14 21 3 15 12 3 16 15 3 17 16 4 18 4 4 19 10 4 20 16 5 21 10 5 22 22 5 23 3 6 24 0 6 25 6 6 26 3 6 27 6 6 28 9 6 29 17 7 30 14 7 31 2 7 32 17 7 33 2 7 34 5 7 35</p>
        </triangles>
      </mesh>
    </geometry>
    <geometry id="YPlusMesh-mesh" name="YPlusMesh">
      <mesh>
        <source id="YPlusMesh-mesh-positions">
          <float_array id="YPlusMesh-mesh-positions-array" count="144">-1 19 3 -1 19 3 -1 19 3 0.9999998 19 3 0.9999998 19 3 0.9999998 19 3 -1 19 -3 -1 19 -3 -1 19 -3 1 19 -3 1 19 -3 1 19 -3 -1 21 3 -1 21 3 -1 21 3 1 21 3 1 21 3 1 21 3 -0.9999998 21 -3 -0.9999998 21 -3 -0.9999998 21 -3 1 21 -3 1 21 -3 1 21 -3 3 19 1 3 19 1 3 19 1 3 19 -1 3 19 -1 3 19 -1 -3 19 1 -3 19 1 -3 19 1 -3 19 -1 -3 19 -1 -3 19 -1 3 21 1 3 21 1 3 21 1 3 21 -1 3 21 -1 3 21 -1 -3 21 1 -3 21 1 -3 21 1 -3 21 -1 -3 21 -1 -3 21 -1</float_array>
          <technique_common>
            <accessor source="#YPlusMesh-mesh-positions-array" count="48" stride="3">
              <param name="X" type="float"/>
              <param name="Y" type="float"/>
              <param name="Z" type="float"/>
            </accessor>
          </technique_common>
        </source>
        <source id="YPlusMesh-mesh-normals">
          <float_array id="YPlusMesh-mesh-normals-array" count="42">-1 0 0 -1 0 0 0 0 -1 0 1 4.07298e-7 0 1 0 1 0 0 1 0 0 0 -1 0 0 -1 0 0 0 1 0 0 1 -1 0 0 0 0 -1 1 0 0</float_array>
          <technique_common>
            <accessor source="#YPlusMesh-mesh-normals-array" count="14" stride="3">
              <param name="X" type="float"/>
              <param name="Y" type="float"/>
              <param name="Z" type="float"/>
            </accessor>
          </technique_common>
        </source>
        <source id="YPlusMesh-mesh-map-0">
          <float_array id="YPlusMesh-mesh-map-0-array" count="144">0.625 0.5 0.875 0.5 0.875 0.75 0.625 0.5 0.875 0.75 0.625 0.75 0.375 0.75 0.625 0.75 0.625 1 0.375 0.75 0.625 1 0.375 1 0.375 0 0.625 0 0.625 0.25 0.375 0 0.625 0.25 0.375 0.25 0.125 0.5 0.375 0.5 0.375 0.75 0.125 0.5 0.375 0.75 0.125 0.75 0.375 0.5 0.625 0.5 0.625 0.75 0.375 0.5 0.625 0.75 0.375 0.75 0.375 0.25 0.625 0.25 0.625 0.5 0.375 0.25 0.625 0.5 0.375 0.5 0.625 0.5 0.875 0.5 0.875 0.75 0.625 0.5 0.875 0.75 0.625 0.75 0.375 0.75 0.625 0.75 0.625 1 0.375 0.75 0.625 1 0.375 1 0.375 0 0.625 0 0.625 0.25 0.375 0 0.625 0.25 0.375 0.25 0.125 0.5 0.375 0.5 0.375 0.75 0.125 0.5 0.375 0.75 0.125 0.75 0.375 0.5 0.625 0.5 0.625 0.75 0.375 0.5 0.625 0.75 0.375 0.75 0.375 0.25 0.625 0.25 0.625 0.5 0.375 0.25 0.625 0.5 0.375 0.5</float_array>
          <technique_common>
            <accessor source="#YPlusMesh-mesh-map-0-array" count="72" stride="2">
              <param name="S" type="float"/>
              <param name="T" type="float"/>
            </accessor>
          </technique_common>
        </source>
        <vertices id="YPlusMesh-mesh-vertices">
          <input semantic="POSITION" source="#YPlusMesh-mesh-positions"/>
        </vertices>
        <triangles material="Green-material" count="24">
          <input semantic="VERTEX" source="#YPlusMesh-mesh-vertices" offset="0"/>
          <input semantic="NORMAL" source="#YPlusMesh-mesh-normals" offset="1"/>
          <input semantic="TEXCOORD" source="#YPlusMesh-mesh-map-0" offset="2" set="0"/>
          <p>2 0 0 14 0 1 20 0 2 2 1 3 20 1 4 8 1 5 10 2 6 7 2 7 19 2 8 10 2 9 19 2 10 22 2 11 21 3 12 18 3 13 12 3 14 21 4 15 12 4 16 15 4 17 17 5 18 5 5 19 11 5 20 17 6 21 11 6 22 23 6 23 3 7 24 0 7 25 6 7 26 3 8 27 6 8 28 9 8 29 16 9 30 13 9 31 1 9 32 16 9 33 1 9 34 4 9 35 25 10 36 37 10 37 43 10 38 25 9 39 43 9 40 31 9 41 35 11 42 32 11 43 44 11 44 35 11 45 44 11 46 47 11 47 45 4 48 42 4 49 36 4 50 45 4 51 36 4 52 39 4 53 40 2 54 28 2 55 34 2 56 40 12 57 34 12 58 46 12 59 27 8 60 24 8 61 30 8 62 27 8 63 30 8 64 33 8 65 41 13 66 38 13 67 26 13 68 41 13 69 26 13 70 29 13 71</p>
        </triangles>
      </mesh>
    </geometry>
    <geometry id="YMinusMesh-mesh" name="YMinusMesh">
      <mesh>
        <source id="YMinusMesh-mesh-positions">
          <float_array id="YMinusMesh-mesh-positions-array" count="72">-3 -19 1 -3 -19 1 -3 -19 1 -3 -19 -1 -3 -19 -1 -3 -19 -1 3 -19 1 3 -19 1 3 -19 1 3 -19 -1 3 -19 -1 3 -19 -1 -3 -21 1 -3 -21 1 -3 -21 1 -3 -21 -1 -3 -21 -1 -3 -21 -1 3 -21 1 3 -21 1 3 -21 1 3 -21 -1 3 -21 -1 3 -21 -1</float_array>
          <technique_common>
            <accessor source="#YMinusMesh-mesh-positions-array" count="24" stride="3">
              <param name="X" type="float"/>
              <param name="Y" type="float"/>
              <param name="Z" type="float"/>
            </accessor>
          </technique_common>
        </source>
        <source id="YMinusMesh-mesh-normals">
          <float_array id="YMinusMesh-mesh-normals-array" count="18">0 0 1 1 0 0 0 -1 0 0 0 -1 0 1 0 -1 0 0</float_array>
          <technique_common>
            <accessor source="#YMinusMesh-mesh-normals-array" count="6" stride="3">
              <param name="X" type="float"/>
              <param name="Y" type="float"/>
              <param name="Z" type="float"/>
            </accessor>
          </technique_common>
        </source>
        <source id="YMinusMesh-mesh-map-0">
          <float_array id="YMinusMesh-mesh-map-0-array" count="72">0.625 0.5 0.875 0.5 0.875 0.75 0.625 0.5 0.875 0.75 0.625 0.75 0.375 0.75 0.625 0.75 0.625 1 0.375 0.75 0.625 1 0.375 1 0.375 0 0.625 0 0.625 0.25 0.375 0 0.625 0.25 0.375 0.25 0.125 0.5 0.375 0.5 0.375 0.75 0.125 0.5 0.375 0.75 0.125 0.75 0.375 0.5 0.625 0.5 0.625 0.75 0.375 0.5 0.625 0.75 0.375 0.75 0.375 0.25 0.625 0.25 0.625 0.5 0.375 0.25 0.625 0.5 0.375 0.5</float_array>
          <technique_common>
            <accessor source="#YMinusMesh-mesh-map-0-array" count="36" stride="2">
              <param name="S" type="float"/>
              <param name="T" type="float"/>
            </accessor>
          </technique_common>
        </source>
        <vertices id="YMinusMesh-mesh-vertices">
          <input semantic="POSITION" source="#YMinusMesh-mesh-positions"/>
        </vertices>
        <triangles material="Green-material" count="12">
          <input semantic="VERTEX" source="#YMinusMesh-mesh-vertices" offset="0"/>
          <input semantic="NORMAL" source="#YMinusMesh-mesh-normals" offset="1"/>
          <input semantic="TEXCOORD" source="#YMinusMesh-mesh-map-0" offset="2" set="0"/>
          <p>1 0 0 13 0 1 19 0 2 1 0 3 19 0 4 7 0 5 11 1 6 8 1 7 20 1 8 11 1 9 20 1 10 23 1 11 21 2 12 18 2 13 12 2 14 21 2 15 12 2 16 15 2 17 16 3 18 4 3 19 10 3 20 16 3 21 10 3 22 22 3 23 3 4 24 0 4 25 6 4 26 3 4 27 6 4 28 9 4 29 17 5 30 14 5 31 2 5 32 17 5 33 2 5 34 5 5 35</p>
        </triangles>
      </mesh>
    </geometry>
    <geometry id="XPlusMesh-mesh" name="XPlusMesh">
      <mesh>
        <source id="XPlusMesh-mesh-positions">
          <float_array id="XPlusMesh-mesh-positions-array" count="144">21 -1 3 21 -1 3 21 -1 3 21 0.9999999 3 21 0.9999999 3 21 0.9999999 3 21 -0.9999999 -3 21 -0.9999999 -3 21 -0.9999999 -3 21 1 -3 21 1 -3 21 1 -3 19 -1 3 19 -1 3 19 -1 3 19 0.9999999 3 19 0.9999999 3 19 0.9999999 3 19 -0.9999999 -3 19 -0.9999999 -3 19 -0.9999999 -3 19 1 -3 19 1 -3 19 1 -3 21 3 1 21 3 1 21 3 1 21 3 -1 21 3 -1 21 3 -1 21 -3 1 21 -3 1 21 -3 1 21 -3 -1 21 -3 -1 21 -3 -1 19 3 1 19 3 1 19 3 1 19 3 -1 19 3 -1 19 3 -1 19 -3 1 19 -3 1 19 -3 1 19 -3 -1 19 -3 -1 19 -3 -1</float_array>
          <technique_common>
            <accessor source="#XPlusMesh-mesh-positions-array" count="48" stride="3">
              <param name="X" type="float"/>
              <param name="Y" type="float"/>
              <param name="Z" type="float"/>
            </accessor>
          </technique_common>
        </source>
        <source id="XPlusMesh-mesh-normals">
          <float_array id="XPlusMesh-mesh-normals-array" count="39">0 -1 0 0 0 -1 -1 0 0 0 1 0 1 0 0 0 0 1 0 0 1 0 -1 0 -1 2.58287e-7 0 0 0 -1 1 4.17232e-7 0 1 -6.35783e-7 0 0 1 0</float_array>
          <technique_common>
            <accessor source="#XPlusMesh-mesh-normals-array" count="13" stride="3">
              <param name="X" type="float"/>
              <param name="Y" type="float"/>
              <param name="Z" type="float"/>
            </accessor>
          </technique_common>
        </source>
        <source id="XPlusMesh-mesh-map-0">
          <float_array id="XPlusMesh-mesh-map-0-array" count="144">0.625 0.5 0.875 0.5 0.875 0.75 0.625 0.5 0.875 0.75 0.625 0.75 0.375 0.75 0.625 0.75 0.625 1 0.375 0.75 0.625 1 0.375 1 0.375 0 0.625 0 0.625 0.25 0.375 0 0.625 0.25 0.375 0.25 0.125 0.5 0.375 0.5 0.375 0.75 0.125 0.5 0.375 0.75 0.125 0.75 0.375 0.5 0.625 0.5 0.625 0.75 0.375 0.5 0.625 0.75 0.375 0.75 0.375 0.25 0.625 0.25 0.625 0.5 0.375 0.25 0.625 0.5 0.375 0.5 0.625 0.5 0.875 0.5 0.875 0.75 0.625 0.5 0.875 0.75 0.625 0.75 0.375 0.75 0.625 0.75 0.625 1 0.375 0.75 0.625 1 0.375 1 0.375 0 0.625 0 0.625 0.25 0.375 0 0.625 0.25 0.375 0.25 0.125 0.5 0.375 0.5 0.375 0.75 0.125 0.5 0.375 0.75 0.125 0.75 0.375 0.5 0.625 0.5 0.625 0.75 0.375 0.5 0.625 0.75 0.375 0.75 0.375 0.25 0.625 0.25 0.625 0.5 0.375 0.25 0.625 0.5 0.375 0.5</float_array>
          <technique_common>
            <accessor source="#XPlusMesh-mesh-map-0-array" count="72" stride="2">
              <param name="S" type="float"/>
              <param name="T" type="float"/>
            </accessor>
          </technique_common>
        </source>
        <vertices id="XPlusMesh-mesh-vertices">
          <input semantic="POSITION" source="#XPlusMesh-mesh-positions"/>
        </vertices>
        <triangles material="Red-material" count="24">
          <input semantic="VERTEX" source="#XPlusMesh-mesh-vertices" offset="0"/>
          <input semantic="NORMAL" source="#XPlusMesh-mesh-normals" offset="1"/>
          <input semantic="TEXCOORD" source="#XPlusMesh-mesh-map-0" offset="2" set="0"/>
          <p>0 0 0 12 0 1 18 0 2 0 0 3 18 0 4 6 0 5 10 1 6 7 1 7 19 1 8 10 1 9 19 1 10 22 1 11 23 2 12 20 2 13 14 2 14 23 2 15 14 2 16 17 2 17 15 3 18 3 3 19 9 3 20 15 3 21 9 3 22 21 3 23 5 4 24 2 4 25 8 4 26 5 4 27 8 4 28 11 4 29 16 5 30 13 5 31 1 5 32 16 5 33 1 5 34 4 5 35 25 6 36 37 6 37 43 6 38 25 6 39 43 6 40 31 6 41 33 7 42 30 7 43 42 7 44 33 7 45 42 7 46 45 7 47 47 8 48 44 8 49 38 8 50 47 2 51 38 2 52 41 2 53 40 9 54 28 9 55 34 9 56 40 9 57 34 9 58 46 9 59 29 10 60 26 10 61 32 10 62 29 11 63 32 11 64 35 11 65 39 12 66 36 12 67 24 12 68 39 12 69 24 12 70 27 12 71</p>
        </triangles>
      </mesh>
    </geometry>
    <geometry id="YMinusMesh_001-mesh" name="YMinusMesh.001">
      <mesh>
        <source id="YMinusMesh_001-mesh-positions">
          <float_array id="YMinusMesh_001-mesh-positions-array" count="72">-21 -2.999999 1 -21 -2.999999 1 -21 -2.999999 1 -21 -2.999999 -1 -21 -2.999999 -1 -21 -2.999999 -1 -21 3.000001 1 -21 3.000001 1 -21 3.000001 1 -21 3.000001 -1 -21 3.000001 -1 -21 3.000001 -1 -19 -2.999999 1 -19 -2.999999 1 -19 -2.999999 1 -19 -2.999999 -1 -19 -2.999999 -1 -19 -2.999999 -1 -19 3.000001 1 -19 3.000001 1 -19 3.000001 1 -19 3.000001 -1 -19 3.000001 -1 -19 3.000001 -1</float_array>
          <technique_common>
            <accessor source="#YMinusMesh_001-mesh-positions-array" count="24" stride="3">
              <param name="X" type="float"/>
              <param name="Y" type="float"/>
              <param name="Z" type="float"/>
            </accessor>
          </technique_common>
        </source>
        <source id="YMinusMesh_001-mesh-normals">
          <float_array id="YMinusMesh_001-mesh-normals-array" count="24">0 0 1 0 0 1 -1.19209e-7 1 0 1 0 0 0 0 -1 0 0 -1 -1 0 0 1.19209e-7 -1 0</float_array>
          <technique_common>
            <accessor source="#YMinusMesh_001-mesh-normals-array" count="8" stride="3">
              <param name="X" type="float"/>
              <param name="Y" type="float"/>
              <param name="Z" type="float"/>
            </accessor>
          </technique_common>
        </source>
        <source id="YMinusMesh_001-mesh-map-0">
          <float_array id="YMinusMesh_001-mesh-map-0-array" count="72">0.625 0.5 0.875 0.5 0.875 0.75 0.625 0.5 0.875 0.75 0.625 0.75 0.375 0.75 0.625 0.75 0.625 1 0.375 0.75 0.625 1 0.375 1 0.375 0 0.625 0 0.625 0.25 0.375 0 0.625 0.25 0.375 0.25 0.125 0.5 0.375 0.5 0.375 0.75 0.125 0.5 0.375 0.75 0.125 0.75 0.375 0.5 0.625 0.5 0.625 0.75 0.375 0.5 0.625 0.75 0.375 0.75 0.375 0.25 0.625 0.25 0.625 0.5 0.375 0.25 0.625 0.5 0.375 0.5</float_array>
          <technique_common>
            <accessor source="#YMinusMesh_001-mesh-map-0-array" count="36" stride="2">
              <param name="S" type="float"/>
              <param name="T" type="float"/>
            </accessor>
          </technique_common>
        </source>
        <vertices id="YMinusMesh_001-mesh-vertices">
          <input semantic="POSITION" source="#YMinusMesh_001-mesh-positions"/>
        </vertices>
        <triangles material="Red-material" count="12">
          <input semantic="VERTEX" source="#YMinusMesh_001-mesh-vertices" offset="0"/>
          <input semantic="NORMAL" source="#YMinusMesh_001-mesh-normals" offset="1"/>
          <input semantic="TEXCOORD" source="#YMinusMesh_001-mesh-map-0" offset="2" set="0"/>
          <p>1 0 0 13 0 1 19 0 2 1 1 3 19 1 4 7 1 5 9 2 6 6 2 7 18 2 8 9 2 9 18 2 10 21 2 11 23 3 12 20 3 13 14 3 14 23 3 15 14 3 16 17 3 17 16 4 18 4 4 19 10 4 20 16 5 21 10 5 22 22 5 23 5 6 24 2 6 25 8 6 26 5 6 27 8 6 28 11 6 29 15 7 30 12 7 31 0 7 32 15 7 33 0 7 34 3 7 35</p>
        </triangles>
      </mesh>
    </geometry>
  </library_geometries>
  <library_visual_scenes>
    <visual_scene id="Scene" name="Scene">
      <node id="ZPlus" name="ZPlus" type="NODE">
        <matrix sid="transform">1 0 0 0 0 1 0 0 0 0 1 0 0 0 0 1</matrix>
        <instance_geometry url="#ZPlusMesh-mesh" name="ZPlus">
          <bind_material>
            <technique_common>
              <instance_material symbol="Blue-material" target="#Blue-material">
                <bind_vertex_input semantic="UVMap" input_semantic="TEXCOORD" input_set="0"/>
              </instance_material>
            </technique_common>
          </bind_material>
        </instance_geometry>
      </node>
      <node id="ZMinus" name="ZMinus" type="NODE">
        <matrix sid="transform">1 0 0 0 0 1 0 0 0 0 1 0 0 0 0 1</matrix>
        <instance_geometry url="#ZMinusMesh-mesh" name="ZMinus">
          <bind_material>
            <technique_common>
              <instance_material symbol="Blue-material" target="#Blue-material">
                <bind_vertex_input semantic="UVMap" input_semantic="TEXCOORD" input_set="0"/>
              </instance_material>
            </technique_common>
          </bind_material>
        </instance_geometry>
      </node>
      <node id="YPlus" name="YPlus" type="NODE">
        <matrix sid="transform">1 0 0 0 0 1 0 0 0 0 1 0 0 0 0 1</matrix>
        <instance_geometry url="#YPlusMesh-mesh" name="YPlus">
          <bind_material>
            <technique_common>
              <instance_material symbol="Green-material" target="#Green-material">
                <bind_vertex_input semantic="UVMap" input_semantic="TEXCOORD" input_set="0"/>
              </instance_material>
            </technique_common>
          </bind_material>
        </instance_geometry>
      </node>
      <node id="YMinus" name="YMinus" type="NODE">
        <matrix sid="transform">1 0 0 0 0 1 0 0 0 0 1 0 0 0 0 1</matrix>
        <instance_geometry url="#YMinusMesh-mesh" name="YMinus">
          <bind_material>
            <technique_common>
              <instance_material symbol="Green-material" target="#Green-material">
                <bind_vertex_input semantic="UVMap" input_semantic="TEXCOORD" input_set="0"/>
              </instance_material>
            </technique_common>
          </bind_material>
        </instance_geometry>
      </node>
      <node id="XPlus" name="XPlus" type="NODE">
        <matrix sid="transform">1 0 0 0 0 1 0 0 0 0 1 0 0 0 0 1</matrix>
        <instance_geometry url="#XPlusMesh-mesh" name="XPlus">
          <bind_material>
            <technique_common>
              <instance_material symbol="Red-material" target="#Red-material">
                <bind_vertex_input semantic="UVMap" input_semantic="TEXCOORD" input_set="0"/>
              </instance_material>
            </technique_common>
          </bind_material>
        </instance_geometry>
      </node>
      <node id="XMinus" name="XMinus" type="NODE">
        <matrix sid="transform">1 0 0 0 0 1 0 0 0 0 1 0 0 0 0 1</matrix>
        <instance_geometry url="#YMinusMesh_001-mesh" name="XMinus">
          <bind_material>
            <technique_common>
              <instance_material symbol="Red-material" target="#Red-material">
                <bind_vertex_input semantic="UVMap" input_semantic="TEXCOORD" input_set="0"/>
              </instance_material>
            </technique_common>
          </bind_material>
        </instance_geometry>
      </node>
      <node id="Camera" name="Camera" type="NODE">
        <matrix sid="transform">0.6859207 -0.3240135 0.6515582 7.358891 0.7276763 0.3054208 -0.6141704 -6.925791 0 0.8953956 0.4452714 4.958309 0 0 0 1</matrix>
        <instance_camera url="#Camera-camera"/>
      </node>
      <node id="Light" name="Light" type="NODE">
        <matrix sid="transform">-0.2908646 -0.7711008 0.5663932 4.076245 0.9551712 -0.1998834 0.2183912 1.005454 -0.05518906 0.6045247 0.7946723 5.903862 0 0 0 1</matrix>
        <instance_light url="#Light-light"/>
      </node>
    </visual_scene>
  </library_visual_scenes>
  <scene>
    <instance_visual_scene url="#Scene"/>
  </scene>
</COLLADA>